PathFileType	4	(X/Y/Z)	TVC_36_BWA_02_walk_RCNL2025.trc
DataRate	CameraRate	NumFrames	NumMarkers	Units	OrigDataRate	OrigDataStartFrame	OrigNumFrames
100	100	10	27	mm	100	305	487
Frame#	Time	R_Shoulder			L_Shoulder			C7			J_Notch			R_Elbow			L_Elbow			R_Wrist			L_Wrist			R_Asis			L_Asis			R_Psis			L_Psis			Sacral			Thoracic			Sternum			R_Thigh_Lateral			R_Knee_Lateral			R_Shank_Lateral			R_Ankle_Lateral			R_Heel			R_Toe			L_Thigh_Lateral			L_Knee_Lateral			L_Shank_Lateral			L_Ankle_Lateral			L_Heel			L_Toe		
		X1	Y1	Z1	X2	Y2	Z2	X3	Y3	Z3	X4	Y4	Z4	X5	Y5	Z5	X6	Y6	Z6	X7	Y7	Z7	X8	Y8	Z8	X9	Y9	Z9	X10	Y10	Z10	X11	Y11	Z11	X12	Y12	Z12	X13	Y13	Z13	X14	Y14	Z14	X15	Y15	Z15	X16	Y16	Z16	X17	Y17	Z17	X18	Y18	Z18	X19	Y19	Z19	X20	Y20	Z20	X21	Y21	Z21	X22	Y22	Z22	X23	Y23	Z23	X24	Y24	Z24	X25	Y25	Z25	X26	Y26	Z26	X27	Y27	Z27
305	3.04000000	689.248718	1394.590942	666.032288	585.884399	1353.596436	331.861969	600.138123	1429.486572	510.603943	755.910828	1309.927002	478.950897	699.847778	1155.365479	843.284668	557.457642	1061.815308	232.299042	885.196228	1052.358215	896.955109	741.063904	954.288147	283.964539	750.710938	899.928284	630.220825	680.102600	910.809204	378.770355	559.501404	910.698853	595.095032	530.615601	906.065674	516.080627	545.058502	908.382263	555.587830	550.778687	1152.598511	553.411621	791.586365	1158.378906	467.942963	726.414368	621.388428	684.170227	704.088135	446.125549	593.866333	621.681091	253.565140	639.045166	569.180786	71.612297	561.232239	521.049561	60.213493	511.346802	689.400391	43.073555	532.739990	741.734924	725.703796	256.443634	858.330566	553.395142	273.147644	839.401428	353.473358	208.136856	930.244263	151.686646	229.556946	892.357971	123.852676	274.718353	1061.521729	156.804871	254.763535
306	3.05000000	690.569824	1393.661255	666.658081	588.580750	1353.448364	331.925751	602.328125	1429.070557	510.718353	758.180664	1309.683472	479.501038	701.796204	1152.846436	842.142761	559.322876	1061.744995	232.500626	888.934937	1049.721375	890.387665	741.691101	952.754181	285.852615	753.313660	899.438293	629.864990	684.358765	909.525208	378.017365	562.509705	909.988281	593.787781	534.137268	905.322449	514.549561	548.323486	907.655365	554.168671	552.761658	1151.915405	552.584106	794.301453	1158.338501	468.321930	728.631531	621.062256	683.912598	705.811279	445.612885	593.859253	622.090271	253.545563	639.196289	569.171814	71.648651	561.250427	521.130127	60.323635	511.237793	689.417786	43.010468	532.972656	746.817017	724.703369	256.720520	863.618103	552.638855	274.911102	845.772156	352.474945	210.282471	937.575317	151.090378	232.659592	899.137695	123.357300	277.518677	1068.513794	156.708389	258.687164
307	3.06000000	691.990173	1392.748413	667.226624	591.408569	1353.321777	331.941406	604.601624	1428.656982	510.792297	760.558655	1309.456543	480.006714	703.797546	1150.248657	840.805603	561.346313	1061.688232	232.656052	892.753082	1046.913086	883.462738	742.417847	951.283356	287.807114	756.027832	898.950989	629.492126	688.651611	908.350952	377.284210	565.654114	909.343567	592.478455	537.724854	904.678284	513.045410	551.689484	907.010925	552.761932	555.131775	1151.142822	551.619202	797.132751	1158.305664	468.664795	730.849365	620.734680	683.687195	707.549744	445.099640	593.889465	622.467957	253.548157	639.375061	569.172302	71.692848	561.291565	521.210693	60.452961	511.144043	689.434937	42.942802	533.228882	751.620483	723.478088	256.977478	868.520447	551.598389	276.715790	851.658508	351.235901	212.458908	944.266235	150.227188	235.690582	905.469727	122.562920	280.314545	1074.959961	156.299942	262.501465
308	3.07000000	693.535645	1391.849976	667.732788	594.370178	1353.213379	331.909637	606.966797	1428.241211	510.828888	763.049805	1309.236572	480.465637	705.853821	1147.574829	839.268250	563.526917	1061.644287	232.759552	896.600220	1043.979156	876.203308	743.253998	949.902985	289.820038	758.844360	898.464722	629.111755	692.953247	907.293091	376.581268	568.897400	908.768982	591.162720	541.334656	904.137939	511.571045	555.116028	906.453461	551.366882	557.844666	1150.294434	550.537170	800.081116	1158.269897	468.972900	733.051880	620.400940	683.494202	709.306824	444.584137	593.951599	622.823730	253.568649	639.566345	569.179932	71.742111	561.348145	521.293823	60.602371	511.057373	689.452515	42.870800	533.503784	756.213440	722.068420	257.215302	873.075562	550.300171	278.542694	857.098572	349.780762	214.628357	950.347961	149.118591	238.641129	911.345215	121.480537	283.068604	1080.866943	155.578049	266.218964
309	3.08000000	695.231262	1390.959717	668.174500	597.465027	1353.119629	331.831421	609.432251	1427.819580	510.831177	765.657593	1309.012695	480.875916	707.967651	1144.826416	837.529846	565.861145	1061.612183	232.809158	900.421997	1040.969055	868.639587	744.210327	948.634735	291.881058	761.751343	897.975830	628.731934	697.240051	906.348755	375.913818	572.204529	908.264404	589.835876	544.931885	903.699280	510.127289	558.568207	905.981842	549.981583	560.845337	1149.386597	549.361267	803.146179	1158.220947	469.246063	735.223022	620.056213	683.330750	711.078613	444.065948	594.038147	623.169739	253.602417	639.754700	569.191589	71.792473	561.411499	521.382446	60.771648	510.970154	689.471008	42.795074	533.790588	760.664612	720.518738	257.437988	877.324951	548.775574	280.372406	862.132568	348.137329	216.754395	955.852112	147.785522	241.506882	916.747437	120.129616	285.748749	1086.240112	154.542160	269.853607
310	3.09000000	697.099487	1390.069824	668.552368	600.689148	1353.036621	331.708008	612.005493	1427.389038	510.802307	768.383484	1308.774658	481.235565	710.143311	1142.004761	835.593628	568.343933	1061.589966	232.807037	904.170135	1037.932678	860.806274	745.298859	947.493835	293.976822	764.737671	897.479919	628.358887	701.498352	905.507324	375.281891	575.547119	907.826050	588.493530	548.495972	903.353577	508.712219	562.021545	905.589813	548.602875	564.079773	1148.436157	548.113708	806.326111	1158.150269	469.482178	737.347473	619.696655	683.190613	712.854126	443.546173	594.140076	623.518066	253.645523	639.926086	569.203247	71.839363	561.472656	521.478882	60.959167	510.876343	689.490417	42.716488	534.081238	765.038818	718.874329	257.651367	881.311584	547.059082	282.185577	866.800293	346.335083	218.804886	960.807129	146.246643	244.285538	921.653931	118.537781	288.330170	1091.083740	153.193665	273.417999
311	3.10000000	699.158447	1389.171631	668.869080	604.035583	1352.961304	331.541107	614.692200	1426.947754	510.745056	771.227173	1308.514160	481.542328	712.388062	1139.111816	833.466675	570.969299	1061.575439	232.759354	907.810669	1034.918701	852.740631	746.533234	946.488556	296.090042	767.795837	896.973328	627.996643	705.728455	904.752014	374.680237	578.906494	907.447754	587.132324	552.023804	903.086670	507.320404	565.465149	905.267212	547.226364	567.500793	1147.458618	546.813049	809.617493	1158.051514	469.677032	739.412292	619.320129	683.064758	714.616211	443.027466	594.247925	623.878723	253.695480	640.069275	569.210388	71.878265	561.523132	521.584229	61.161812	510.771759	689.509949	42.635990	534.367798	769.393188	717.178528	257.861847	885.078186	545.187012	283.963226	871.137878	344.403717	220.753998	965.235840	144.518005	246.975296	926.040100	116.738678	290.795807	1095.400757	151.536713	276.921326
312	3.11000000	701.420898	1388.257324	669.128601	607.494507	1352.891479	331.332794	617.496155	1426.493896	510.661377	774.186523	1308.225952	481.793457	714.712646	1136.151123	831.159363	573.731384	1061.564941	232.675354	911.329407	1031.973724	844.480865	747.928558	945.620544	298.199005	770.923889	896.454285	627.646912	709.946167	904.062683	374.099030	582.274963	907.122620	585.749634	555.530334	902.880920	505.942932	568.902649	905.001770	545.846283	571.068787	1146.468628	545.474243	813.015869	1157.922363	469.824554	741.408447	618.927124	682.942505	716.343994	442.513763	594.352356	624.257751	253.751617	640.177002	569.208191	71.905563	561.555969	521.697937	61.375187	510.654358	689.528198	42.554531	534.642578	773.774719	715.470703	258.075165	888.665527	543.195190	285.687439	875.175781	342.371918	222.583496	969.155273	142.613586	249.573990	929.883850	114.768631	293.135773	1099.193481	149.579178	280.368378
313	3.12000000	703.893433	1387.320801	669.334961	611.053650	1352.826416	331.085846	620.419250	1426.026245	510.552155	777.257935	1307.909180	481.985657	717.131470	1133.128784	828.684509	576.625000	1061.554565	232.566223	914.733978	1029.142731	836.065460	749.501312	944.885590	300.276978	774.125122	895.923096	627.308228	714.179932	903.418945	373.524963	585.654907	906.844849	584.344482	559.044983	902.717896	504.567963	572.349945	904.781372	544.456223	574.749573	1145.481445	544.109375	816.516174	1157.764160	469.917236	743.333435	618.520630	682.812317	718.016663	442.009460	594.444702	624.656555	253.814850	640.246155	569.192627	71.919281	561.566162	521.817932	61.594166	510.524078	689.543396	42.473007	534.899414	778.219116	713.784668	258.295258	892.110901	541.117249	287.342041	878.937317	340.266266	224.282852	972.577759	140.546753	252.079086	933.169434	112.663139	295.345764	1102.464478	147.333084	283.759247
314	3.13000000	706.576355	1386.358154	669.491699	614.699768	1352.766357	330.803497	623.461670	1425.543945	510.417023	780.437500	1307.567139	482.115417	719.661682	1130.053955	826.056824	579.645996	1061.539917	232.443451	918.052917	1026.470795	827.532898	751.268890	944.275116	302.292130	777.405212	895.381470	626.975525	718.465576	902.802673	372.943085	589.055786	906.610779	582.917114	562.605408	902.581116	503.182159	575.830597	904.595947	543.049637	578.512207	1144.512817	542.729187	820.113281	1157.582397	469.946594	745.192993	618.105713	682.663269	719.617188	441.518860	594.516968	625.072205	253.887054	640.277039	569.160950	71.919685	561.551147	521.940796	61.813656	510.382233	689.553589	42.392239	535.133362	782.750000	712.147522	258.523346	895.446838	538.983337	288.913300	882.438354	338.110840	225.848618	975.512634	138.331665	254.487854	935.890442	110.454651	297.425781	1105.217773	144.814651	287.089752
